<?xml version="1.0" encoding="utf-8"?>
<svg id="master-artboard" viewBox="0 0 557 604.9935302734375" version="1.1" xmlns="http://www.w3.org/2000/svg" x="0px" y="0px" style="enable-background:new 0 0 336 235.2;" width="557px" height="604.9935302734375px" xmlns:xlink="http://www.w3.org/1999/xlink"><rect id="ee-background" x="0" y="0" width="557" height="604.9935302734375" style="fill: white; fill-opacity: 0; pointer-events: none;"/><defs><path d="M13 8.004v3.582l2.185 2.185a1.003 1.003 0 0 1 0 1.414 1.003 1.003 0 0 1-1.414 0l-2.47-2.469a.996.996 0 0 1-.301-.712V6a1 1 0 0 1 2 0v2.004zM12 22C6.477 22 2 17.523 2 12S6.477 2 12 2s10 4.477 10 10-4.477 10-10 10zm0-2a8 8 0 1 0 0-16 8 8 0 0 0 0 16z" id="a"/></defs><g transform="matrix(23.158378300743117, 0, 0, 23.158378300743117, 0.5660360455513, 2.1288487911224365)"><g fill="none" fill-rule="evenodd"><g transform="translate(0 2)"><mask id="b" fill="#fff"><use xlink:href="#a"/></mask><path stroke="#42526E" d="M12 8v1.795V8zm0 1.795v2.208l.008.006 1.415 1.415L12 12V9.795zM12 21a9 9 0 1 0 0-18 9 9 0 0 0 0 18zm0 0a9 9 0 1 1 0-18 9 9 0 0 1 0 18z"/><g mask="url(#b)" fill="#42526E"><path d="M0 24h24V0H0z"/></g></g><path d="M 10 0 H 14 A 1 1 0 0 1 15 1 V 1 A 1 1 0 0 1 14 2 H 10 A 1 1 0 0 1 9 1 V 1 A 1 1 0 0 1 10 0 Z" fill="#42526E"/></g></g></svg>